<svg height='100px' width='100px'  fill="#191919" xmlns="http://www.w3.org/2000/svg" xmlns:xlink="http://www.w3.org/1999/xlink" version="1.1" x="0px" y="0px" viewBox="0 0 100 100" enable-background="new 0 0 100 100" xml:space="preserve"><g><path d="M86.028,41.179C86.028,21.313,69.866,5.152,50,5.152c-19.867,0-36.028,16.161-36.028,36.027   c0,17.97,13.224,32.906,30.452,35.593v10.57c-10.727,0.521-18.715,2.502-18.715,4.865v2.759h48.583v-2.759   c0-2.363-7.987-4.345-18.718-4.865V76.773C72.803,74.087,86.028,59.149,86.028,41.179z M17.244,41.179   C17.244,23.117,31.939,8.424,50,8.424c18.063,0,32.756,14.693,32.756,32.755c0,18.061-14.693,32.755-32.756,32.755   C31.939,73.935,17.244,59.24,17.244,41.179z M41.783,15.35c4.615-7.284,11.386-6.463,15.386-4.617   c4.001,1.847,8.821,9.028,4.72,13.132c-3.362,3.361-7.201,4.043-8.48,8.015c-1.065-0.393-2.211-0.616-3.411-0.616   c-1.662,0-3.225,0.415-4.603,1.14c-0.288-0.281-0.637-0.569-1.074-0.858C40.243,28.862,38.708,20.201,41.783,15.35z M24.169,49.396   c-7.284-4.617-6.462-11.388-4.617-15.388c1.847-4,9.028-8.823,13.133-4.719c3.362,3.363,4.043,7.202,8.015,8.482   c-0.392,1.064-0.617,2.21-0.617,3.409c0,1.661,0.416,3.226,1.141,4.602c-0.28,0.288-0.569,0.637-0.859,1.075   C37.682,50.933,29.02,52.47,24.169,49.396z M58.216,67.007c-4.617,7.285-11.387,6.463-15.388,4.617   c-4-1.848-8.823-9.027-4.72-13.131c3.363-3.362,7.202-4.044,8.482-8.015c1.064,0.393,2.21,0.614,3.409,0.614   c1.663,0,3.227-0.413,4.602-1.138c0.289,0.281,0.64,0.57,1.076,0.858C59.755,53.497,61.289,62.157,58.216,67.007z M75.827,32.962   c7.284,4.617,6.464,11.387,4.617,15.389c-1.847,3.999-9.027,8.82-13.133,4.719c-3.361-3.364-4.041-7.202-8.013-8.481   c0.392-1.065,0.616-2.211,0.616-3.41c0-1.662-0.416-3.225-1.142-4.603c0.282-0.288,0.569-0.637,0.858-1.075   C62.314,31.424,70.978,29.888,75.827,32.962z M56.962,41.178c0,3.846-3.116,6.963-6.964,6.963c-3.843,0-6.961-3.117-6.961-6.963   c0-3.845,3.118-6.961,6.961-6.961C53.846,34.216,56.962,37.333,56.962,41.178z"></path></g></svg>